<?xml version="1.0"?>
<svg xmlns="http://www.w3.org/2000/svg" id="Capa_1" enable-background="new 0 0 512 512" height="512px" viewBox="0 0 512 512" width="512px"><g><g><path d="m406 0h-270c-24.813 0-45 20.187-45 45v362c0 24.813 20.187 45 45 45h15v45c0 5.532 3.045 10.615 7.922 13.225 4.878 2.61 10.796 2.324 15.398-.744l36.68-24.453 36.68 24.453c4.609 3.073 10.528 3.351 15.398.744 4.877-2.61 7.922-7.693 7.922-13.225v-45h105c8.284 0 15-6.716 15-15v-45h15c8.284 0 15-6.716 15-15v-362c0-8.284-6.716-15-15-15zm-270 422c-8.271 0-15-6.729-15-15s6.729-15 15-15h15v30zm105 46.972-21.68-14.453c-5.038-3.358-11.603-3.358-16.641 0l-21.679 14.453v-76.972h60zm120-46.972h-90v-30h90zm30-60h-255c-5.257 0-10.307.906-15 2.57v-319.57c0-8.271 6.729-15 15-15h255z" data-original="#000000" class="active-path" data-old_color="#000000" fill="#AAADB1"/><path d="m166 211h180c8.284 0 15-6.716 15-15v-91c0-8.284-6.716-15-15-15h-180c-8.284 0-15 6.716-15 15v91c0 8.284 6.716 15 15 15zm15-91h150v61h-150z" data-original="#000000" class="active-path" data-old_color="#000000" fill="#AAADB1"/><path d="m166 271h180c8.284 0 15-6.716 15-15s-6.716-15-15-15h-180c-8.284 0-15 6.716-15 15s6.716 15 15 15z" data-original="#000000" class="active-path" data-old_color="#000000" fill="#AAADB1"/></g></g> </svg>
