<?xml version="1.0"?>
<svg xmlns="http://www.w3.org/2000/svg" id="Capa_1" enable-background="new 0 0 512 512" height="512px" viewBox="0 0 512 512" width="512px"><g><circle cx="271" cy="98.5" r="7.5" data-original="#000000" class="active-path" data-old_color="#000000" fill="#AAADB1"/><circle cx="241" cy="98.5" r="7.5" data-original="#000000" class="active-path" data-old_color="#000000" fill="#AAADB1"/><circle cx="301" cy="98.5" r="7.5" data-original="#000000" class="active-path" data-old_color="#000000" fill="#AAADB1"/><path d="m172.5 241h197c4.143 0 7.5-3.358 7.5-7.5s-3.357-7.5-7.5-7.5h-197c-4.143 0-7.5 3.358-7.5 7.5s3.357 7.5 7.5 7.5z" data-original="#000000" class="active-path" data-old_color="#000000" fill="#AAADB1"/><path d="m172.5 286h197c4.143 0 7.5-3.358 7.5-7.5s-3.357-7.5-7.5-7.5h-197c-4.143 0-7.5 3.358-7.5 7.5s3.357 7.5 7.5 7.5z" data-original="#000000" class="active-path" data-old_color="#000000" fill="#AAADB1"/><path d="m172.5 196h197c4.143 0 7.5-3.358 7.5-7.5s-3.357-7.5-7.5-7.5h-197c-4.143 0-7.5 3.358-7.5 7.5s3.357 7.5 7.5 7.5z" data-original="#000000" class="active-path" data-old_color="#000000" fill="#AAADB1"/><path d="m504.5 0h-407c-4.143 0-7.5 3.358-7.5 7.5v354.5h-82.5c-4.143 0-7.5 3.358-7.5 7.5 0 28.949 23.552 52.5 52.5 52.5h347c28.948 0 52.5-23.551 52.5-52.5v-354.5h15v482h-362v-52.5c0-4.142-3.357-7.5-7.5-7.5s-7.5 3.358-7.5 7.5v60c0 4.142 3.357 7.5 7.5 7.5h407c4.143 0 7.5-3.358 7.5-7.5v-497c0-4.142-3.357-7.5-7.5-7.5zm-452 407c-18.109 0-33.262-12.905-36.747-30h331.781c1.677 11.673 7.208 22.118 15.259 30zm384.5-37.5c0 20.678-16.822 37.5-37.5 37.5s-37.5-16.822-37.5-37.5c0-4.142-3.357-7.5-7.5-7.5h-249.5v-347h332zm60 127.5h-15v-482h15z" data-original="#000000" class="active-path" data-old_color="#000000" fill="#AAADB1"/></g> </svg>
