<?xml version="1.0"?>
<svg xmlns="http://www.w3.org/2000/svg" id="_x31_" enable-background="new 0 0 24 24" height="512px" viewBox="0 0 24 24" width="512px" class=""><g><g><path d="m21.5 23h-19c-1.379 0-2.5-1.121-2.5-2.5v-17c0-1.379 1.121-2.5 2.5-2.5h19c1.379 0 2.5 1.121 2.5 2.5v17c0 1.379-1.121 2.5-2.5 2.5zm-19-21c-.827 0-1.5.673-1.5 1.5v17c0 .827.673 1.5 1.5 1.5h19c.827 0 1.5-.673 1.5-1.5v-17c0-.827-.673-1.5-1.5-1.5z" data-original="#000000" class="active-path" data-old_color="#000000" fill="#AAADB1"/></g><g><path d="m23.5 6h-23c-.276 0-.5-.224-.5-.5s.224-.5.5-.5h23c.276 0 .5.224.5.5s-.224.5-.5.5z" data-original="#000000" class="active-path" data-old_color="#000000" fill="#AAADB1"/></g><g><path d="m10.5 17c-.276 0-.5-.224-.5-.5v-3.5c0-.552-.448-1-1-1s-1 .448-1 1v3.5c0 .276-.224.5-.5.5s-.5-.224-.5-.5v-3.5c0-1.103.897-2 2-2s2 .897 2 2v3.5c0 .276-.224.5-.5.5z" data-original="#000000" class="active-path" data-old_color="#000000" fill="#AAADB1"/></g><g><path d="m10.5 15h-3c-.276 0-.5-.224-.5-.5s.224-.5.5-.5h3c.276 0 .5.224.5.5s-.224.5-.5.5z" data-original="#000000" class="active-path" data-old_color="#000000" fill="#AAADB1"/></g><g><path d="m14.5 17h-1c-.276 0-.5-.224-.5-.5v-5c0-.276.224-.5.5-.5h1c1.379 0 2.5 1.121 2.5 2.5v1c0 1.379-1.121 2.5-2.5 2.5zm-.5-1h.5c.827 0 1.5-.673 1.5-1.5v-1c0-.827-.673-1.5-1.5-1.5h-.5z" data-original="#000000" class="active-path" data-old_color="#000000" fill="#AAADB1"/></g></g> </svg>
